# xmcd
#
# Track frame offsets: 
#        150
#        14887
#        30614
#        52129
#        71794
#        90101
#        103751
#        124692
#        144674
#        156540
#
# Disc length: 2362 seconds
#
# Revision: 0
# Processed by: cddbd v1.5.2PL0 Copyright (c) Steve Scherf et al.
# Submitted via: ExactAudioCopyFreeDBPlugin 1.0
#
DISCID=9009380a
DTITLE=Les Soul Pleureurs - Les Soul Pleureurs
DYEAR=2016
DGENRE=Hip-hop
TTITLE0=Tous les chemins mènent au Rhône
TTITLE1=Vagabonds
TTITLE2=Ricochets
TTITLE3=Voyage à travers l'écriture
TTITLE4=Entre rêve et réalité
TTITLE5=Moulin à paroles
TTITLE6=Sur le fil
TTITLE7=Mes oubliettes
TTITLE8=Moulin à paroles (Remix)
TTITLE9=Ricochets (Remix)
EXTD=
EXTT0=
EXTT1=
EXTT2=
EXTT3=
EXTT4=
EXTT5=
EXTT6=
EXTT7=
EXTT8=
EXTT9=
PLAYORDER=
